<svg xmlns="http://www.w3.org/2000/svg" width="520" height="180" viewBox="0 0 520 180" fill="none">
  <g stroke="#5e6470" stroke-width="3" stroke-linecap="round" stroke-linejoin="round">
    <path d="M18 34h116l18 18h36M502 34H386l-18 18h-36M18 146h116l18-18h36M502 146H386l-18-18h-36" opacity=".72"/>
    <path d="M42 54v72M478 54v72" opacity=".42"/>
    <rect x="174" y="20" width="172" height="140" rx="34" opacity=".55"/>
  </g>
  <g fill="#f4edda">
    <rect x="252" y="35" width="16" height="25" rx="4"/>
    <rect x="252" y="35" width="16" height="25" rx="4" transform="rotate(45 260 90)"/>
    <rect x="252" y="35" width="16" height="25" rx="4" transform="rotate(90 260 90)"/>
    <rect x="252" y="35" width="16" height="25" rx="4" transform="rotate(135 260 90)"/>
    <rect x="252" y="35" width="16" height="25" rx="4" transform="rotate(180 260 90)"/>
    <rect x="252" y="35" width="16" height="25" rx="4" transform="rotate(225 260 90)"/>
    <rect x="252" y="35" width="16" height="25" rx="4" transform="rotate(270 260 90)"/>
    <rect x="252" y="35" width="16" height="25" rx="4" transform="rotate(315 260 90)"/>
  </g>
  <circle cx="260" cy="90" r="37" fill="#111516" stroke="#f4edda" stroke-width="10"/>
  <circle cx="260" cy="90" r="13" fill="#111516" stroke="#f2a93b" stroke-width="7"/>
</svg>
