<?xml version="1.0" encoding="UTF-8"?>
<svg xmlns="http://www.w3.org/2000/svg" xmlns:xlink="http://www.w3.org/1999/xlink" width="574" height="179" viewBox="0 0 574 179">
<defs>
<g>
<g id="glyph-0-0">
<path d="M 70 0 L 51.265625 0 L 21 -52.1875 C 21 -49.988281 21 -47.796875 21 -45.609375 C 21 -43.421875 21 -41.226562 21 -39.03125 C 21 -36.84375 21 -34.65625 21 -32.46875 L 21 0 L 9 0 L 9 -69 L 26.9375 -69 L 57 -17.296875 C 57 -19.421875 57 -21.546875 57 -23.671875 C 57 -25.796875 57 -27.90625 57 -30 C 57 -32.09375 57 -34.203125 57 -36.328125 L 57 -69 L 70 -69 Z M 70 0 "/>
</g>
<g id="glyph-0-1">
<path d="M 34 0 L 3 0 L 3 -8.3125 L 11.21875 -12.171875 L 11.21875 -56.828125 L 3 -60.6875 L 3 -69 L 34 -69 L 34 -60.6875 L 26 -56.828125 L 26 -12.171875 L 34 -8.3125 Z M 34 0 "/>
</g>
<g id="glyph-0-2">
<path d="M 35 0 L 20.21875 0 L 20.21875 -57 L 2 -57 L 2 -69 L 54 -69 L 54 -57 L 35 -57 Z M 35 0 "/>
</g>
<g id="glyph-0-3">
<path d="M 48.5 0 L 9 0 L 9 -69 L 48.5 -69 L 48.5 -57 L 23.78125 -57 L 23.78125 -42 L 46.5 -42 L 46.5 -30 L 23.78125 -30 L 23.78125 -12 L 48.5 -12 Z M 48.5 0 "/>
</g>
<g id="glyph-0-4">
<path d="M 64.78125 -35.671875 C 64.78125 -27.734375 63.3125 -21.125 60.375 -15.84375 C 57.4375 -10.5625 53.300781 -6.597656 47.96875 -3.953125 C 42.632812 -1.316406 36.269531 0 28.875 0 L 8 0 L 8 -69 L 30.59375 -69 C 37.800781 -69 43.941406 -67.722656 49.015625 -65.171875 C 54.085938 -62.628906 57.984375 -58.878906 60.703125 -53.921875 C 63.421875 -48.960938 64.78125 -42.878906 64.78125 -35.671875 Z M 50 -35.03125 C 50 -40.019531 49.269531 -44.132812 47.8125 -47.375 C 46.351562 -50.625 44.164062 -53.039062 41.25 -54.625 C 38.332031 -56.207031 34.738281 -57 30.46875 -57 L 22.78125 -57 L 22.78125 -12 L 29 -12 C 36.125 -12 41.40625 -13.910156 44.84375 -17.734375 C 48.28125 -21.566406 50 -27.332031 50 -35.03125 Z M 50 -35.03125 "/>
</g>
<g id="glyph-0-5">
<path d="M 70 -34.53125 C 70 -29.1875 69.34375 -24.34375 68.03125 -20 C 66.726562 -15.65625 64.753906 -11.90625 62.109375 -8.75 C 59.460938 -5.59375 56.101562 -3.175781 52.03125 -1.5 C 47.957031 0.164062 43.113281 1 37.5 1 C 31.945312 1 27.117188 0.164062 23.015625 -1.5 C 18.910156 -3.175781 15.535156 -5.59375 12.890625 -8.75 C 10.242188 -11.90625 8.265625 -15.65625 6.953125 -20 C 5.648438 -24.34375 5 -29.222656 5 -34.640625 C 5 -41.785156 6.160156 -48 8.484375 -53.28125 C 10.804688 -58.5625 14.375 -62.664062 19.1875 -65.59375 C 24 -68.53125 30.132812 -70 37.59375 -70 C 44.988281 -70 51.085938 -68.53125 55.890625 -65.59375 C 60.703125 -62.664062 64.253906 -58.546875 66.546875 -53.234375 C 68.847656 -47.921875 70 -41.6875 70 -34.53125 Z M 20 -34.953125 C 20 -30.210938 20.597656 -26.113281 21.796875 -22.65625 C 23.003906 -19.195312 24.910156 -16.554688 27.515625 -14.734375 C 30.128906 -12.910156 33.457031 -12 37.5 -12 C 41.664062 -12 45.035156 -12.910156 47.609375 -14.734375 C 50.179688 -16.554688 52.054688 -19.195312 53.234375 -22.65625 C 54.410156 -26.113281 55 -30.210938 55 -34.953125 C 55 -42.117188 53.660156 -47.75 50.984375 -51.84375 C 48.316406 -55.945312 43.851562 -58 37.59375 -58 C 33.488281 -58 30.128906 -57.070312 27.515625 -55.21875 C 24.910156 -53.363281 23.003906 -50.722656 21.796875 -47.296875 C 20.597656 -43.867188 20 -39.753906 20 -34.953125 Z M 20 -34.953125 "/>
</g>
</g>
</defs>
<g fill="rgb(0%, 0%, 0%)" fill-opacity="1">
<use xlink:href="#glyph-0-0" x="24" y="126.624023"/>
<use xlink:href="#glyph-0-1" x="102" y="126.624023"/>
<use xlink:href="#glyph-0-0" x="139" y="126.624023"/>
<use xlink:href="#glyph-0-2" x="217" y="126.624023"/>
<use xlink:href="#glyph-0-3" x="272" y="126.624023"/>
<use xlink:href="#glyph-0-0" x="326" y="126.624023"/>
<use xlink:href="#glyph-0-4" x="404" y="126.624023"/>
<use xlink:href="#glyph-0-5" x="474" y="126.624023"/>
</g>
</svg>
